<svg width="24" height="24" viewBox="0 0 24 24" fill="none" xmlns="http://www.w3.org/2000/svg">
<path d="M19.6504 15.6002C19.6504 16.0144 19.9862 16.3502 20.4004 16.3502C20.8146 16.3502 21.1504 16.0144 21.1504 15.6002H19.6504ZM2.85039 15.6002C2.85039 16.0144 3.18618 16.3502 3.60039 16.3502C4.0146 16.3502 4.35039 16.0144 4.35039 15.6002H2.85039ZM5.70039 4.9502H18.3004V3.4502H5.70039V4.9502ZM19.6504 6.23096V15.6002H21.1504V6.23096H19.6504ZM4.35039 15.6002V6.23096H2.85039V15.6002H4.35039ZM18.3004 4.9502C19.0699 4.9502 19.6504 5.54712 19.6504 6.23096H21.1504C21.1504 4.67169 19.8505 3.4502 18.3004 3.4502V4.9502ZM5.70039 3.4502C4.15028 3.4502 2.85039 4.67169 2.85039 6.23096H4.35039C4.35039 5.54712 4.93091 4.9502 5.70039 4.9502V3.4502ZM3.60039 16.9502H20.4004V15.4502H3.60039V16.9502ZM20.8504 17.4002V18.6002H22.3504V17.4002H20.8504ZM20.4004 19.0502H3.60039V20.5502H20.4004V19.0502ZM3.15039 18.6002V17.4002H1.65039V18.6002H3.15039ZM3.60039 19.0502C3.35186 19.0502 3.15039 18.8487 3.15039 18.6002H1.65039C1.65039 19.6771 2.52344 20.5502 3.60039 20.5502V19.0502ZM20.8504 18.6002C20.8504 18.8487 20.6489 19.0502 20.4004 19.0502V20.5502C21.4773 20.5502 22.3504 19.6771 22.3504 18.6002H20.8504ZM20.4004 16.9502C20.6489 16.9502 20.8504 17.1517 20.8504 17.4002H22.3504C22.3504 16.3232 21.4773 15.4502 20.4004 15.4502V16.9502ZM3.60039 15.4502C2.52344 15.4502 1.65039 16.3232 1.65039 17.4002H3.15039C3.15039 17.1517 3.35186 16.9502 3.60039 16.9502V15.4502Z" fill="#828282"/>
</svg>
