<svg width="24" height="24" viewBox="0 0 24 24" fill="none" xmlns="http://www.w3.org/2000/svg">
<path d="M12.0001 6.24039C10.9397 6.24039 10.0801 5.38078 10.0801 4.32039C10.0801 3.26 10.9397 2.40039 12.0001 2.40039C13.0605 2.40039 13.9201 3.26 13.9201 4.32039C13.9201 5.38078 13.0605 6.24039 12.0001 6.24039ZM12.0001 6.24039L12.0001 17.7604M12.0001 17.7604C10.9397 17.7604 10.0801 18.62 10.0801 19.6804C10.0801 20.7408 10.9397 21.6004 12.0001 21.6004C13.0605 21.6004 13.9201 20.7408 13.9201 19.6804C13.9201 18.62 13.0605 17.7604 12.0001 17.7604ZM19.6801 17.7604C18.6197 17.7604 17.7601 18.62 17.7601 19.6804C17.7601 20.7408 18.6197 21.6004 19.6801 21.6004C20.7405 21.6004 21.6001 20.7408 21.6001 19.6804C21.6001 18.62 20.7405 17.7604 19.6801 17.7604ZM19.6801 17.7604V12.2404C19.6801 11.7102 19.2503 11.2804 18.7201 11.2804L5.2801 11.2804C4.74991 11.2804 4.3201 11.7102 4.3201 12.2404V17.7604M4.3201 17.7604C3.25971 17.7604 2.4001 18.62 2.4001 19.6804C2.4001 20.7408 3.25971 21.6004 4.3201 21.6004C5.38049 21.6004 6.2401 20.7408 6.2401 19.6804C6.2401 18.62 5.38049 17.7604 4.3201 17.7604Z" stroke="#228DFF" stroke-width="1.5" stroke-linecap="round"/>
</svg>
