<svg width="24" height="24" viewBox="0 0 24 24" fill="none" xmlns="http://www.w3.org/2000/svg">
<path d="M5.39999 5.3291V3.5291C5.39999 2.86636 5.93724 2.3291 6.59999 2.3291H18C18.6627 2.3291 19.2 2.86636 19.2 3.5291V8.3291M2.40093 19.2701L2.40102 10.1458C2.40102 9.23186 2.40068 7.93013 2.40039 6.98758C2.40019 6.32467 2.93752 5.78789 3.60044 5.78789H9.31865L12.0837 8.74153H20.4C21.0627 8.74153 21.6 9.27881 21.6 9.94156L21.5997 19.2702C21.5996 20.5957 20.5251 21.6702 19.1997 21.6702L4.80092 21.6701C3.47543 21.6701 2.40091 20.5956 2.40093 19.2701Z" stroke="#BDBDBD" stroke-width="1.5" stroke-linecap="round" stroke-linejoin="round"/>
</svg>
