<svg width="24" height="24" viewBox="0 0 24 24" fill="none" xmlns="http://www.w3.org/2000/svg">
<path d="M1.6499 21.6003C1.64986 22.0145 1.9856 22.3503 2.39982 22.3504C2.81403 22.3504 3.14986 22.0147 3.1499 21.6005L1.6499 21.6003ZM2.40031 18L3.15031 18.0001L2.40031 18ZM12.5999 15.1504C13.0141 15.1504 13.3499 14.8146 13.3499 14.4004C13.3499 13.9862 13.0141 13.6504 12.5999 13.6504V15.1504ZM21.5999 16.3504C22.0141 16.3504 22.3499 16.0146 22.3499 15.6004C22.3499 15.1862 22.0141 14.8504 21.5999 14.8504V16.3504ZM16.1999 14.8504C15.7857 14.8504 15.4499 15.1862 15.4499 15.6004C15.4499 16.0146 15.7857 16.3504 16.1999 16.3504V14.8504ZM18.1499 18.3002C18.1499 18.7145 18.4857 19.0502 18.8999 19.0502C19.3141 19.0502 19.6499 18.7145 19.6499 18.3002H18.1499ZM19.6499 12.9002C19.6499 12.486 19.3141 12.1502 18.8999 12.1502C18.4857 12.1502 18.1499 12.486 18.1499 12.9002H19.6499ZM17.7666 1.74616C17.4053 1.54363 16.9482 1.67235 16.7457 2.03367C16.5431 2.39499 16.6719 2.85209 17.0332 3.05462L17.7666 1.74616ZM17.0332 8.94616C16.6719 9.14869 16.5431 9.60579 16.7457 9.96711C16.9482 10.3284 17.4053 10.4572 17.7666 10.2546L17.0332 8.94616ZM13.6499 6.00039C13.6499 7.5744 12.3739 8.85039 10.7999 8.85039V10.3504C13.2023 10.3504 15.1499 8.40283 15.1499 6.00039H13.6499ZM10.7999 8.85039C9.22589 8.85039 7.9499 7.5744 7.9499 6.00039H6.4499C6.4499 8.40283 8.39746 10.3504 10.7999 10.3504V8.85039ZM7.9499 6.00039C7.9499 4.42638 9.22589 3.15039 10.7999 3.15039V1.65039C8.39746 1.65039 6.4499 3.59795 6.4499 6.00039H7.9499ZM10.7999 3.15039C12.3739 3.15039 13.6499 4.42638 13.6499 6.00039H15.1499C15.1499 3.59795 13.2023 1.65039 10.7999 1.65039V3.15039ZM3.1499 21.6005L3.15031 18.0001L1.65031 17.9999L1.6499 21.6003L3.1499 21.6005ZM6.00031 13.6504C3.59806 13.6504 1.65058 15.5977 1.65031 17.9999L3.15031 18.0001C3.15048 16.4262 4.42642 15.1504 6.00031 15.1504V13.6504ZM6.00031 15.1504H12.5999V13.6504H6.00031V15.1504ZM21.5999 14.8504H18.8999V16.3504H21.5999V14.8504ZM18.8999 14.8504H16.1999V16.3504H18.8999V14.8504ZM19.6499 18.3002V15.6004H18.1499V18.3002H19.6499ZM19.6499 15.6004V12.9002H18.1499V15.6004H19.6499ZM17.0332 3.05462C18.3255 3.77899 19.0499 4.87085 19.0499 6.00039H20.5499C20.5499 4.17968 19.3868 2.65435 17.7666 1.74616L17.0332 3.05462ZM19.0499 6.00039C19.0499 7.12993 18.3255 8.22179 17.0332 8.94616L17.7666 10.2546C19.3868 9.34643 20.5499 7.8211 20.5499 6.00039H19.0499Z" fill="#228DFF"/>
</svg>
