<svg width="140" height="32" viewBox="0 0 140 32" fill="none" xmlns="http://www.w3.org/2000/svg">
<g clip-path="url(#clip0_12_26752)">
<path d="M2.90419 31.9982H9.67442V15.5185L0 8.25293V29.0901C0 29.8614 0.305976 30.601 0.850616 31.1464C1.39526 31.6918 2.13395 31.9982 2.90419 31.9982Z" fill="#4285F4"/>
<path d="M32.917 31.9979H39.6947C40.0765 31.9986 40.4548 31.924 40.8078 31.7781C41.1608 31.6323 41.4816 31.4182 41.7518 31.1481C42.0221 30.878 42.2365 30.5572 42.3828 30.204C42.5291 29.8508 42.6044 29.4722 42.6044 29.0898V8.24707L32.93 15.5126L32.917 31.9979Z" fill="#34A853"/>
<path d="M32.917 2.91569V15.5186L42.5914 8.25306V4.37066C42.5914 0.775152 38.4984 -1.27782 35.6203 0.879479L32.917 2.91569Z" fill="#FBBC04"/>
<path d="M9.6748 15.5179V2.91504L21.2916 11.6393L32.9102 2.91504V15.5179L21.2916 24.2422L9.6748 15.5179Z" fill="#EA4335"/>
<path d="M0 4.37066V8.24748L9.67442 15.513V2.91569L6.97116 0.879479C4.09302 -1.27782 0 0.775152 0 4.37066Z" fill="#C5221F"/>
<path fill-rule="evenodd" clip-rule="evenodd" d="M139.535 27.9217C138.71 27.9217 137.886 27.905 137.064 27.9329C136.718 27.9441 136.656 27.8211 136.658 27.5063C136.666 22.2093 136.666 16.9123 136.658 11.6153C136.658 9.71505 136.658 7.81483 136.658 5.91462C136.658 5.59978 136.72 5.47682 137.066 5.488C137.888 5.51594 138.712 5.49918 139.536 5.49918L139.535 27.9217Z" fill="#787879"/>
<path fill-rule="evenodd" clip-rule="evenodd" d="M78.698 15.9306C80.3724 15.9306 82.0468 15.9306 83.7212 15.9306C83.9482 15.9306 84.1268 15.9306 84.1584 16.2287C84.4729 19.1982 84.0263 21.9908 82.1119 24.3847C80.1975 26.7786 77.6896 28.0826 74.6366 28.3677C72.3203 28.5838 70.0729 28.349 68.0003 27.2499C64.4115 25.346 62.1882 22.4174 61.6915 18.3226C61.2561 14.7271 62.0989 11.4856 64.5956 8.77683C67.2784 5.86875 70.6235 4.69695 74.5305 5.07886C77.031 5.32291 79.2766 6.178 81.1147 7.95526C81.5166 8.34276 81.511 8.34648 81.1147 8.73957C80.6217 9.23325 80.1212 9.72321 79.6356 10.2299C79.4849 10.3864 79.4012 10.3827 79.2412 10.2299C76.7798 7.74661 73.7752 7.20635 70.5547 8.17509C67.3342 9.14383 65.3715 11.4483 64.7333 14.7606C64.2087 17.4806 64.6012 20.0738 66.3426 22.3168C68.3891 24.951 71.1408 25.9384 74.4096 25.6086C76.1087 25.4678 77.7156 24.7758 78.9863 23.6376C80.3705 22.3932 81.0719 20.8022 81.3398 18.9802C81.3938 18.6188 81.2263 18.6076 80.9454 18.6076C78.5138 18.6076 76.0822 18.6076 73.6505 18.6188C73.3324 18.6188 73.2077 18.5518 73.2226 18.2071C73.2505 17.5774 73.2449 16.9478 73.2226 16.3181C73.2133 16.0107 73.3008 15.9101 73.6208 15.9138C75.3138 15.938 77.0049 15.9306 78.698 15.9306Z" fill="#787879"/>
<path fill-rule="evenodd" clip-rule="evenodd" d="M90.125 14.676C91.3585 13.018 92.9864 12.0511 95.0701 12.0865C97.1538 12.1219 98.7724 13.0348 99.7399 14.9909C100.117 14.4466 100.554 13.9467 101.042 13.5005C102.817 11.9505 105.811 11.5947 107.883 12.7218C109.42 13.5582 110.132 14.9573 110.434 16.6098C110.537 17.2171 110.586 17.8325 110.579 18.4485C110.579 21.4702 110.579 24.4919 110.59 27.5155C110.59 27.8415 110.514 27.9514 110.175 27.9365C109.505 27.9105 108.834 27.9105 108.164 27.9365C107.792 27.9533 107.669 27.8657 107.673 27.4652C107.692 24.6242 107.673 21.7832 107.684 18.9422C107.698 18.2845 107.636 17.6274 107.498 16.9842C107.167 15.5758 106.294 14.8344 104.847 14.7487C102.588 14.6052 100.83 16.0658 100.451 18.3945C100.384 18.8259 100.354 19.2621 100.361 19.6985C100.361 22.3067 100.361 24.9316 100.361 27.549C100.361 27.8508 100.302 27.9645 99.9743 27.9533C99.2624 27.9247 98.5498 27.9247 97.8366 27.9533C97.5036 27.9664 97.4496 27.8397 97.4515 27.5435C97.4602 24.7031 97.4602 21.8627 97.4515 19.0223C97.4762 18.323 97.4137 17.6233 97.2655 16.9395C96.9176 15.5702 96.0617 14.8493 94.6515 14.758C92.311 14.6034 90.4934 16.172 90.2031 18.5882C90.1535 19.0211 90.1293 19.4566 90.1306 19.8923C90.1306 22.3961 90.1306 24.9012 90.1306 27.4075C90.1306 28.039 90.2199 27.944 89.5724 27.9514C88.925 27.9589 88.285 27.9384 87.6431 27.9514C87.3622 27.9608 87.2599 27.8956 87.2617 27.5882C87.2704 22.706 87.2704 17.8226 87.2617 12.9379C87.2617 12.6584 87.3436 12.5765 87.6171 12.5839C88.3017 12.6013 88.9839 12.6013 89.6636 12.5839C89.9334 12.5839 90.0357 12.6473 90.0245 12.9323C90.0041 13.3794 90.0152 13.8265 90.0245 14.2755C90.0469 14.3891 89.9855 14.5363 90.125 14.676Z" fill="#79797A"/>
<path fill-rule="evenodd" clip-rule="evenodd" d="M123.76 25.828C123.692 25.8363 123.628 25.8617 123.573 25.9018C123.518 25.9419 123.474 25.9953 123.445 26.0572C122.052 27.9443 120.184 28.6653 117.877 28.3672C116.119 28.1362 114.682 27.3501 113.7 25.8672C113.297 25.266 113.034 24.5819 112.929 23.8654C112.825 23.1488 112.883 22.418 113.098 21.7267C113.313 21.0353 113.68 20.4011 114.172 19.8706C114.664 19.3401 115.269 18.9268 115.942 18.6612C118.411 17.6385 120.924 17.7093 123.397 18.7358C123.676 18.8513 123.754 18.8773 123.769 18.5197C123.864 16.1462 121.808 14.7565 120.087 14.6615C118.467 14.5739 117.133 15.1384 116.145 16.4462C115.987 16.6567 115.88 16.6511 115.678 16.5188C115.038 16.0959 114.392 15.6768 113.726 15.2949C113.417 15.1086 113.479 14.9838 113.654 14.7621C114.574 13.5453 115.89 12.6887 117.374 12.3402C119.28 11.8931 121.179 11.9248 122.999 12.7128C125.092 13.6257 126.236 15.2781 126.442 17.5379C126.628 19.5592 126.489 21.5917 126.513 23.6186C126.528 24.9226 126.513 26.2267 126.522 27.5215C126.522 27.8195 126.47 27.9443 126.137 27.9313C125.454 27.9034 124.768 27.9108 124.091 27.9313C123.838 27.9313 123.75 27.868 123.76 27.6034C123.773 27.0278 123.76 26.4447 123.76 25.828ZM120.199 20.2839C118.932 20.2839 117.84 20.5093 116.913 21.2545C116.078 21.9251 115.687 22.7895 115.983 23.8477C116.279 24.9059 117.099 25.4648 118.107 25.7312C120.563 26.3813 123.317 24.4923 123.709 21.968C123.784 21.4818 123.661 21.2321 123.24 21.0048C122.251 20.4702 121.188 20.323 120.199 20.2839Z" fill="#79797A"/>
<path fill-rule="evenodd" clip-rule="evenodd" d="M132.903 20.2518C132.903 22.6439 132.89 25.0359 132.916 27.4279C132.916 27.8732 132.784 27.9607 132.38 27.9402C131.697 27.9086 131.011 27.9198 130.333 27.9402C130.069 27.9402 130.004 27.8545 130.006 27.603C130.006 22.7097 130.006 17.8145 130.006 12.9174C130.006 12.6323 130.105 12.5653 130.378 12.5709C131.104 12.5876 131.831 12.5913 132.557 12.5709C132.862 12.5615 132.929 12.6715 132.929 12.9546C132.899 15.3839 132.903 17.8188 132.903 20.2518Z" fill="#7A7A7B"/>
<path fill-rule="evenodd" clip-rule="evenodd" d="M131.474 5.1936C131.89 5.19874 132.295 5.32692 132.639 5.56204C132.983 5.79715 133.249 6.12872 133.405 6.51508C133.561 6.90144 133.6 7.32536 133.516 7.73359C133.432 8.14182 133.23 8.51615 132.934 8.80956C132.639 9.10296 132.263 9.30236 131.855 9.38269C131.446 9.46303 131.023 9.42072 130.639 9.26108C130.254 9.10145 129.926 8.8316 129.694 8.48544C129.462 8.13929 129.337 7.73227 129.336 7.31551C129.334 7.03479 129.388 6.75654 129.495 6.49708C129.603 6.23762 129.76 6.00216 129.959 5.80453C130.158 5.60689 130.395 5.45105 130.655 5.34615C130.915 5.24124 131.193 5.18938 131.474 5.1936Z" fill="#79797A"/>
</g>
<defs>
<clipPath id="clip0_12_26752">
<rect width="139.535" height="32" fill="white"/>
</clipPath>
</defs>
</svg>
