<svg width="82" height="26" viewBox="0 0 82 26" fill="none" xmlns="http://www.w3.org/2000/svg">
<path d="M72.2295 0.203125C75.5459 0.203125 77.9658 0.853516 79.4893 2.1543C81.0244 3.44336 81.792 5.29492 81.792 7.70898C81.792 8.79883 81.6104 9.83594 81.2471 10.8203C80.8955 11.793 80.3213 12.6543 79.5244 13.4043C78.7275 14.1426 77.6787 14.7285 76.3779 15.1621C75.0889 15.584 73.5068 15.7949 71.6318 15.7949H68.5029V25.9023H65.5146V0.203125H72.2295ZM71.9482 2.75195H68.5029V13.2285H71.2979C72.9385 13.2285 74.3037 13.0527 75.3936 12.7012C76.4951 12.3496 77.3213 11.7812 77.8721 10.9961C78.4229 10.1992 78.6982 9.14453 78.6982 7.83203C78.6982 6.12109 78.1533 4.84961 77.0635 4.01758C75.9736 3.17383 74.2686 2.75195 71.9482 2.75195Z" fill="#333333"/>
<path d="M58.7529 25.9023L55.5889 17.7461H45.2881L42.1416 25.9023H39.1182L49.1729 0.0976562H51.8623L61.8467 25.9023H58.7529ZM54.6924 15.0918L51.6865 6.98828C51.6162 6.77734 51.499 6.43164 51.335 5.95117C51.1826 5.4707 51.0244 4.97266 50.8604 4.45703C50.6963 3.94141 50.5615 3.52539 50.4561 3.20898C50.3389 3.68945 50.21 4.16992 50.0693 4.65039C49.9404 5.11914 49.8115 5.55859 49.6826 5.96875C49.5537 6.36719 49.4424 6.70703 49.3486 6.98828L46.29 15.0918H54.6924Z" fill="#333333"/>
<path d="M21.457 25.9023L12.8262 3.15625H12.6855C12.7324 3.63672 12.7734 4.22266 12.8086 4.91406C12.8438 5.60547 12.873 6.36133 12.8965 7.18164C12.9199 7.99023 12.9316 8.81641 12.9316 9.66016V25.9023H10.1543V0.203125H14.584L22.7227 21.5781H22.8457L31.1074 0.203125H35.502V25.9023H32.5488V9.44922C32.5488 8.6875 32.5605 7.92578 32.584 7.16406C32.6074 6.39062 32.6367 5.66406 32.6719 4.98438C32.707 4.29297 32.7422 3.69531 32.7773 3.19141H32.6367L23.9004 25.9023H21.457Z" fill="#333333"/>
<path d="M0 25.9023V0.203125H2.98828V25.9023H0Z" fill="#333333"/>
</svg>
