<svg width="150" height="32" viewBox="0 0 150 32" fill="none" xmlns="http://www.w3.org/2000/svg">
<g clip-path="url(#clip0_12_26768)">
<path d="M52.9466 18.4313L52.0525 20.9615H51.978C51.829 20.391 51.5558 19.5228 51.1088 18.4809L46.3158 6.44989H41.6221V25.6251H44.7264V13.7925C44.7264 13.0483 44.7264 12.2049 44.7015 11.1631C44.6767 10.6421 44.627 10.2452 44.6022 9.94757H44.6767C44.8257 10.6918 44.9996 11.2375 45.1237 11.5848L50.8853 25.5755H53.0707L58.7827 11.4607C58.9068 11.1383 59.031 10.4933 59.1552 9.94757H59.2297C59.1552 11.3615 59.1055 12.6266 59.0807 13.3956V25.5507H62.3837V6.40028H57.8638L52.9466 18.4313ZM65.5128 11.808H68.7413V25.5507H65.5128V11.808ZM67.1519 6.00338C66.6055 6.00338 66.1585 6.20183 65.786 6.54912C65.4135 6.89641 65.2148 7.34292 65.2148 7.88865C65.2148 8.40958 65.4135 8.8561 65.786 9.20338C66.1585 9.55067 66.6055 9.72431 67.1519 9.72431C67.6982 9.72431 68.1701 9.52586 68.5178 9.20338C68.8903 8.8561 69.089 8.40958 69.089 7.88865C69.089 7.36772 68.8903 6.92121 68.5178 6.54912C68.1949 6.20183 67.7231 6.00338 67.1519 6.00338ZM80.1899 11.684C79.5939 11.56 78.9731 11.4856 78.377 11.4856C76.9118 11.4856 75.5707 11.808 74.4532 12.453C73.3356 13.098 72.4416 13.991 71.8704 15.1073C71.2744 16.2483 70.9764 17.5631 70.9764 19.0763C70.9764 20.391 71.2744 21.5569 71.8456 22.6235C72.4168 23.6654 73.2115 24.5088 74.2794 25.0794C75.2976 25.6499 76.4896 25.9476 77.8307 25.9476C79.3704 25.9476 80.6866 25.6251 81.7297 25.0297L81.7545 25.0049V22.0282L81.6304 22.1274C81.1585 22.4747 80.6121 22.7724 80.0658 22.946C79.4946 23.1445 78.9731 23.2437 78.526 23.2437C77.2347 23.2437 76.2164 22.8716 75.4962 22.053C74.7512 21.2592 74.3787 20.1677 74.3787 18.8034C74.3787 17.3894 74.7512 16.2731 75.5211 15.4545C76.2909 14.6359 77.3092 14.2142 78.5509 14.2142C79.5939 14.2142 80.6618 14.5615 81.6304 15.2561L81.7545 15.3553V12.2049L81.7297 12.1801C81.3075 12.0065 80.8356 11.808 80.1899 11.684ZM90.8439 11.5848C90.0492 11.5848 89.3042 11.8328 88.6585 12.3538C88.1121 12.8003 87.7396 13.4452 87.4168 14.2142H87.3919V11.808H84.1635V25.5507H87.3919V18.5305C87.3919 17.3398 87.6403 16.3476 88.1866 15.6282C88.733 14.884 89.4284 14.5119 90.2727 14.5119C90.5707 14.5119 90.8688 14.5863 91.2413 14.6359C91.589 14.7352 91.8373 14.8344 92.0111 14.9584L92.1353 15.0576V11.8328L92.0608 11.808C91.8373 11.6592 91.3903 11.5848 90.8439 11.5848ZM99.6353 11.5104C97.3754 11.5104 95.5625 12.1801 94.2959 13.4949C93.0045 14.8096 92.3837 16.6204 92.3837 18.9026C92.3837 21.0359 93.0294 22.7724 94.2711 24.0375C95.5128 25.2778 97.2015 25.9228 99.3125 25.9228C101.523 25.9228 103.286 25.253 104.553 23.9135C105.844 22.5739 106.465 20.7879 106.465 18.5801C106.465 16.3972 105.869 14.6607 104.652 13.3956C103.485 12.1305 101.771 11.5104 99.6353 11.5104ZM102.218 22.0778C101.622 22.8468 100.678 23.2189 99.5111 23.2189C98.3439 23.2189 97.4002 22.8468 96.7297 22.0282C96.0592 21.2592 95.7363 20.1429 95.7363 18.729C95.7363 17.2654 96.084 16.1491 96.7297 15.3553C97.4002 14.5615 98.3191 14.1646 99.4863 14.1646C100.629 14.1646 101.523 14.5367 102.168 15.3057C102.814 16.0747 103.162 17.191 103.162 18.6545C103.112 20.1429 102.839 21.3088 102.218 22.0778ZM113.667 17.5135C112.649 17.0918 112.003 16.7693 111.705 16.4964C111.457 16.2483 111.332 15.9011 111.332 15.4545C111.332 15.0825 111.481 14.7104 111.854 14.4623C112.226 14.2142 112.649 14.0902 113.269 14.0902C113.816 14.0902 114.387 14.1894 114.933 14.3383C115.48 14.4871 115.976 14.7104 116.374 15.008L116.498 15.1073V12.0809L116.423 12.0561C116.051 11.9073 115.554 11.7584 114.958 11.6344C114.362 11.5352 113.816 11.4856 113.369 11.4856C111.829 11.4856 110.562 11.8576 109.569 12.6762C108.576 13.4452 108.104 14.4871 108.104 15.7026C108.104 16.3476 108.203 16.9181 108.427 17.3894C108.65 17.8607 108.973 18.3073 109.42 18.6794C109.867 19.0266 110.513 19.4235 111.407 19.7956C112.152 20.1181 112.723 20.3662 113.071 20.5646C113.418 20.7631 113.642 20.9863 113.816 21.16C113.94 21.3584 114.014 21.6065 114.014 21.929C114.014 22.8468 113.319 23.2933 111.904 23.2933C111.357 23.2933 110.786 23.1941 110.115 22.9708C109.445 22.7476 108.824 22.4251 108.303 22.053L108.178 21.9538V25.1042L108.253 25.129C108.725 25.3522 109.296 25.5011 109.991 25.6747C110.687 25.7987 111.308 25.898 111.854 25.898C113.518 25.898 114.884 25.5259 115.852 24.7073C116.846 23.9135 117.367 22.8964 117.367 21.5817C117.367 20.6638 117.119 19.8452 116.572 19.2251C115.852 18.6297 114.958 18.0096 113.667 17.5135ZM125.885 11.5104C123.625 11.5104 121.812 12.1801 120.546 13.4949C119.279 14.8096 118.634 16.6204 118.634 18.9026C118.634 21.0359 119.279 22.7724 120.521 24.0375C121.763 25.2778 123.452 25.9228 125.562 25.9228C127.773 25.9228 129.536 25.253 130.803 23.9135C132.094 22.5739 132.715 20.7879 132.715 18.5801C132.715 16.3972 132.119 14.6607 130.902 13.3956C129.735 12.1305 128.021 11.5104 125.885 11.5104ZM128.443 22.0778C127.847 22.8468 126.904 23.2189 125.736 23.2189C124.544 23.2189 123.625 22.8468 122.955 22.0282C122.284 21.2592 121.961 20.1429 121.961 18.729C121.961 17.2654 122.309 16.1491 122.955 15.3553C123.625 14.5615 124.544 14.1646 125.711 14.1646C126.829 14.1646 127.748 14.5367 128.394 15.3057C129.039 16.0747 129.387 17.191 129.387 18.6545C129.387 20.1429 129.064 21.3088 128.443 22.0778ZM149.975 14.4623V11.808H146.721V7.73982L146.622 7.76462L143.543 8.68245L143.468 8.70726V11.808H138.601V10.0716C138.601 9.2778 138.799 8.65765 139.147 8.26075C139.495 7.86385 140.016 7.6654 140.662 7.6654C141.109 7.6654 141.581 7.76462 142.102 7.98788L142.226 8.0623V5.2592L142.152 5.23439C141.705 5.08555 141.109 4.98633 140.339 4.98633C139.37 4.98633 138.526 5.20958 137.756 5.58168C136.986 6.00338 136.415 6.57393 135.993 7.34292C135.571 8.0871 135.347 8.93051 135.347 9.89796V11.808H133.087V14.4375H135.347V25.5507H138.601V14.4623H143.468V21.5321C143.468 24.4344 144.834 25.898 147.566 25.898C148.013 25.898 148.485 25.8235 148.932 25.7491C149.404 25.6499 149.751 25.5259 149.95 25.4266L149.975 25.4018V22.7476L149.851 22.8468C149.652 22.9708 149.478 23.07 149.18 23.1445C148.932 23.2189 148.708 23.2437 148.534 23.2437C147.889 23.2437 147.442 23.0949 147.119 22.7228C146.821 22.3755 146.672 21.8049 146.672 20.9615V14.4623H149.975Z" fill="#737373"/>
<path d="M0 0H15.2235V15.2062H0V0Z" fill="#F25022"/>
<path d="M16.8125 0H32.036V15.2062H16.8125V0Z" fill="#7FBA00"/>
<path d="M0 16.7939H15.2235V32.0001H0V16.7939Z" fill="#00A4EF"/>
<path d="M16.8125 16.7939H32.036V32.0001H16.8125V16.7939Z" fill="#FFB900"/>
</g>
<defs>
<clipPath id="clip0_12_26768">
<rect width="150" height="32" fill="white"/>
</clipPath>
</defs>
</svg>
