<svg width="24" height="24" viewBox="0 0 24 24" fill="none" xmlns="http://www.w3.org/2000/svg">
<path d="M16.0253 20.5703L16.0256 17.3566C16.0258 15.5814 14.5867 14.1422 12.8115 14.1422H5.61432C3.83939 14.1422 2.40046 15.581 2.40026 17.3559L2.3999 20.5703M21.5996 20.5705L21.5999 17.3567C21.6001 15.5816 20.161 14.1424 18.3858 14.1424M15.4062 4.06012C16.1955 4.64576 16.7071 5.58461 16.7071 6.64294C16.7071 7.70127 16.1955 8.64013 15.4062 9.22577M12.4937 6.64277C12.4937 8.41784 11.0547 9.85682 9.27964 9.85682C7.50457 9.85682 6.06559 8.41784 6.06559 6.64277C6.06559 4.86769 7.50457 3.42871 9.27964 3.42871C11.0547 3.42871 12.4937 4.86769 12.4937 6.64277Z" stroke="#828282" stroke-width="1.5" stroke-linecap="round" stroke-linejoin="round"/>
</svg>
