<svg width="24" height="24" viewBox="0 0 24 24" fill="none" xmlns="http://www.w3.org/2000/svg">
<path d="M17.3995 2.39844H6.59931C5.27383 2.39844 4.19932 3.47295 4.19931 4.79842L4.19922 19.1984C4.19921 20.5239 5.27372 21.5984 6.59921 21.5984L17.3993 21.5984C18.7247 21.5984 19.7992 20.524 19.7993 19.1985L19.7995 4.79848C19.7996 3.47298 18.725 2.39844 17.3995 2.39844Z" fill="#228DFF"/>
<path d="M8.39959 7.19844H15.5996M8.39959 10.7984H15.5996M8.39959 14.3984H11.9996M6.59931 2.39844H17.3995C18.725 2.39844 19.7996 3.47298 19.7995 4.79848L19.7993 19.1985C19.7992 20.524 18.7247 21.5984 17.3993 21.5984L6.59921 21.5984C5.27372 21.5984 4.19921 20.5239 4.19922 19.1984L4.19931 4.79842C4.19932 3.47295 5.27383 2.39844 6.59931 2.39844Z" stroke="white" stroke-width="1.5" stroke-linecap="round" stroke-linejoin="round"/>
</svg>
