<svg width="24" height="24" viewBox="0 0 24 24" fill="none" xmlns="http://www.w3.org/2000/svg">
<path d="M2.99902 6.375C2.99902 4.51104 4.51006 3 6.37402 3H17.624C19.488 3 20.999 4.51104 20.999 6.375V17.625C20.999 19.489 19.488 21 17.624 21H6.37402C4.51006 21 2.99902 19.489 2.99902 17.625V6.375Z" fill="#14B8A6"/>
<path d="M9.74902 8.0625C9.74902 8.99448 8.9935 9.75 8.06152 9.75C7.12954 9.75 6.37402 8.99448 6.37402 8.0625C6.37402 7.13052 7.12954 6.375 8.06152 6.375C8.9935 6.375 9.74902 7.13052 9.74902 8.0625Z" fill="#14B8A6"/>
<path d="M3.59369 18.7822C3.3008 19.0751 3.3008 19.5499 3.59369 19.8428C3.88659 20.1357 4.36146 20.1357 4.65435 19.8428L3.59369 18.7822ZM8.62402 14.8125L9.15435 14.2822C8.86146 13.9893 8.38659 13.9893 8.09369 14.2822L8.62402 14.8125ZM10.874 17.0625L10.3437 17.5928C10.6366 17.8857 11.1115 17.8857 11.4044 17.5928L10.874 17.0625ZM15.9365 12L16.4669 11.4697C16.174 11.1768 15.6991 11.1768 15.4062 11.4697L15.9365 12ZM19.9062 17.0303C20.1991 17.3232 20.674 17.3232 20.9669 17.0303C21.2597 16.7374 21.2597 16.2626 20.9669 15.9697L19.9062 17.0303ZM4.65435 19.8428L9.15435 15.3428L8.09369 14.2822L3.59369 18.7822L4.65435 19.8428ZM8.09369 15.3428L10.3437 17.5928L11.4044 16.5322L9.15435 14.2822L8.09369 15.3428ZM11.4044 17.5928L16.4669 12.5303L15.4062 11.4697L10.3437 16.5322L11.4044 17.5928ZM15.4062 12.5303L19.9062 17.0303L20.9669 15.9697L16.4669 11.4697L15.4062 12.5303ZM6.37402 3.75H17.624V2.25H6.37402V3.75ZM20.249 6.375V17.625H21.749V6.375H20.249ZM17.624 20.25H6.37402V21.75H17.624V20.25ZM3.74902 17.625V6.375H2.24902V17.625H3.74902ZM6.37402 20.25C4.92428 20.25 3.74902 19.0747 3.74902 17.625H2.24902C2.24902 19.9032 4.09585 21.75 6.37402 21.75V20.25ZM20.249 17.625C20.249 19.0747 19.0738 20.25 17.624 20.25V21.75C19.9022 21.75 21.749 19.9032 21.749 17.625H20.249ZM17.624 3.75C19.0738 3.75 20.249 4.92525 20.249 6.375H21.749C21.749 4.09683 19.9022 2.25 17.624 2.25V3.75ZM6.37402 2.25C4.09585 2.25 2.24902 4.09683 2.24902 6.375H3.74902C3.74902 4.92525 4.92428 3.75 6.37402 3.75V2.25ZM8.99902 8.0625C8.99902 8.58027 8.57929 9 8.06152 9V10.5C9.40772 10.5 10.499 9.40869 10.499 8.0625H8.99902ZM8.06152 9C7.54376 9 7.12402 8.58027 7.12402 8.0625H5.62402C5.62402 9.40869 6.71533 10.5 8.06152 10.5V9ZM7.12402 8.0625C7.12402 7.54473 7.54376 7.125 8.06152 7.125V5.625C6.71533 5.625 5.62402 6.71631 5.62402 8.0625H7.12402ZM8.06152 7.125C8.57929 7.125 8.99902 7.54473 8.99902 8.0625H10.499C10.499 6.71631 9.40772 5.625 8.06152 5.625V7.125Z" fill="white"/>
</svg>
