<svg width="24" height="24" viewBox="0 0 24 24" fill="none" xmlns="http://www.w3.org/2000/svg">
<path d="M21.5986 17.9984C21.5986 19.9867 19.9869 21.5984 17.9986 21.5984L5.99852 21.5984C4.0103 21.5984 2.39852 19.9867 2.39852 17.9984L2.39852 5.99844C2.39852 4.01021 4.0103 2.39844 5.99852 2.39844L17.9986 2.39844C19.9869 2.39844 21.5986 4.01022 21.5986 5.99844L21.5986 17.9984Z" fill="#C32899"/>
<path d="M2.99863 7.19844L20.9986 7.19844M2.99863 16.7984L20.9986 16.7984M11.9986 2.39844L11.9986 21.5984M16.7986 2.39844L16.7986 7.19844M16.7986 16.7984L16.7986 21.5984M7.19863 2.39844L7.19863 7.19844M7.19863 16.7984L7.19863 21.5984M5.99852 2.39844L17.9986 2.39844C19.9869 2.39844 21.5986 4.01022 21.5986 5.99844L21.5986 17.9984C21.5986 19.9867 19.9869 21.5984 17.9986 21.5984L5.99852 21.5984C4.0103 21.5984 2.39852 19.9867 2.39852 17.9984L2.39852 5.99844C2.39852 4.01021 4.0103 2.39844 5.99852 2.39844Z" stroke="white" stroke-width="1.5" stroke-linecap="round" stroke-linejoin="round"/>
</svg>
