<svg width="24" height="24" viewBox="0 0 24 24" fill="none" xmlns="http://www.w3.org/2000/svg">
<path d="M9.7499 9.60039C9.7499 9.18618 9.41412 8.85039 8.9999 8.85039C8.58569 8.85039 8.2499 9.18618 8.2499 9.60039H9.7499ZM8.2499 21.6004C8.2499 22.0146 8.58569 22.3504 8.9999 22.3504C9.41412 22.3504 9.7499 22.0146 9.7499 21.6004H8.2499ZM5.9999 3.15039H17.9999V1.65039H5.9999V3.15039ZM20.8499 6.00039V18.0004H22.3499V6.00039H20.8499ZM17.9999 20.8504H5.9999V22.3504H17.9999V20.8504ZM3.1499 18.0004V6.00039H1.6499V18.0004H3.1499ZM5.9999 20.8504C4.42589 20.8504 3.1499 19.5744 3.1499 18.0004H1.6499C1.6499 20.4028 3.59746 22.3504 5.9999 22.3504V20.8504ZM20.8499 18.0004C20.8499 19.5744 19.5739 20.8504 17.9999 20.8504V22.3504C20.4023 22.3504 22.3499 20.4028 22.3499 18.0004H20.8499ZM17.9999 3.15039C19.5739 3.15039 20.8499 4.42638 20.8499 6.00039H22.3499C22.3499 3.59795 20.4023 1.65039 17.9999 1.65039V3.15039ZM5.9999 1.65039C3.59746 1.65039 1.6499 3.59795 1.6499 6.00039H3.1499C3.1499 4.42638 4.42589 3.15039 5.9999 3.15039V1.65039ZM8.2499 9.60039V21.6004H9.7499V9.60039H8.2499ZM2.9999 9.75039H20.9999V8.25039H2.9999V9.75039Z" fill="#BDBDBD"/>
</svg>
